<svg width="20" height="20" viewBox="0 0 20 20" fill="none" xmlns="http://www.w3.org/2000/svg">
<path d="M4.375 9.375H16.875C17.0408 9.375 17.1997 9.44085 17.3169 9.55806C17.4342 9.67527 17.5 9.83424 17.5 10C17.5 10.1658 17.4342 10.3247 17.3169 10.4419C17.1997 10.5592 17.0408 10.625 16.875 10.625H4.375C4.20924 10.625 4.05027 10.5592 3.93306 10.4419C3.81585 10.3247 3.75 10.1658 3.75 10C3.75 9.83424 3.81585 9.67527 3.93306 9.55806C4.05027 9.44085 4.20924 9.375 4.375 9.375Z" fill="#C5BEC0"/>
<path d="M4.63376 9.9999L9.81751 15.1824C9.93487 15.2998 10.0008 15.4589 10.0008 15.6249C10.0008 15.7909 9.93487 15.95 9.81751 16.0674C9.70015 16.1848 9.54098 16.2507 9.37501 16.2507C9.20904 16.2507 9.04987 16.1848 8.93251 16.0674L3.30751 10.4424C3.24931 10.3843 3.20313 10.3154 3.17162 10.2394C3.14011 10.1635 3.12389 10.0821 3.12389 9.9999C3.12389 9.9177 3.14011 9.83629 3.17162 9.76036C3.20313 9.68443 3.24931 9.61546 3.30751 9.5574L8.93251 3.9324C9.04987 3.81505 9.20904 3.74911 9.37501 3.74911C9.54098 3.74911 9.70015 3.81505 9.81751 3.9324C9.93487 4.04976 10.0008 4.20893 10.0008 4.3749C10.0008 4.54087 9.93487 4.70005 9.81751 4.8174L4.63376 9.9999Z" fill="#C5BEC0"/>
</svg>
