<svg width="22" height="22" viewBox="0 0 22 22" fill="none" xmlns="http://www.w3.org/2000/svg">
<mask id="mask0_238_100" style="mask-type:alpha" maskUnits="userSpaceOnUse" x="0" y="0" width="22" height="22">
<rect width="22" height="22" fill="#D9D9D9"/>
</mask>
<g mask="url(#mask0_238_100)">
<path d="M12.3063 18.975L6.66875 13.1083C6.59236 13.0319 6.53125 12.9365 6.48542 12.8219C6.43958 12.7073 6.41667 12.5889 6.41667 12.4667V11.9167C6.41667 11.6569 6.50451 11.4392 6.68021 11.2635C6.8559 11.0878 7.07361 11 7.33333 11H9.625C10.4347 11 11.1337 10.7365 11.7219 10.2094C12.3101 9.68229 12.6653 9.02917 12.7875 8.25H6.41667C6.15694 8.25 5.93924 8.16215 5.76354 7.98646C5.58785 7.81076 5.5 7.59306 5.5 7.33333C5.5 7.07361 5.58785 6.8559 5.76354 6.68021C5.93924 6.50451 6.15694 6.41667 6.41667 6.41667H12.5125C12.2528 5.88194 11.867 5.44271 11.3552 5.09896C10.8434 4.75521 10.2667 4.58333 9.625 4.58333H6.41667C6.15694 4.58333 5.93924 4.49549 5.76354 4.31979C5.58785 4.1441 5.5 3.92639 5.5 3.66667C5.5 3.40694 5.58785 3.18924 5.76354 3.01354C5.93924 2.83785 6.15694 2.75 6.41667 2.75H15.5833C15.8431 2.75 16.0608 2.83785 16.2365 3.01354C16.4122 3.18924 16.5 3.40694 16.5 3.66667C16.5 3.92639 16.4122 4.1441 16.2365 4.31979C16.0608 4.49549 15.8431 4.58333 15.5833 4.58333H13.5208C13.7347 4.84306 13.9257 5.12569 14.0938 5.43125C14.2618 5.73681 14.3917 6.06528 14.4833 6.41667H15.5833C15.8431 6.41667 16.0608 6.50451 16.2365 6.68021C16.4122 6.8559 16.5 7.07361 16.5 7.33333C16.5 7.59306 16.4122 7.81076 16.2365 7.98646C16.0608 8.16215 15.8431 8.25 15.5833 8.25H14.6438C14.5215 9.54861 13.9868 10.6372 13.0396 11.5156C12.0924 12.3941 10.9542 12.8333 9.625 12.8333H8.96042L13.6354 17.6917C13.9104 17.9819 13.9677 18.3142 13.8073 18.6885C13.6469 19.0628 13.3681 19.25 12.9708 19.25C12.8486 19.25 12.7302 19.2271 12.6156 19.1813C12.501 19.1354 12.3979 19.0667 12.3063 18.975Z" fill="#6B6062"/>
</g>
</svg>
