<svg width="23" height="22" viewBox="0 0 23 22" fill="none" xmlns="http://www.w3.org/2000/svg">
<mask id="mask0_238_92" style="mask-type:alpha" maskUnits="userSpaceOnUse" x="0" y="0" width="23" height="22">
<rect x="0.5" width="22" height="22" fill="#D9D9D9"/>
</mask>
<g mask="url(#mask0_238_92)">
<path d="M5.08334 20.1667C4.57918 20.1667 4.14758 19.9872 3.78855 19.6281C3.42952 19.2691 3.25001 18.8375 3.25001 18.3333V7.99793C2.97501 7.82987 2.75348 7.61216 2.58543 7.3448C2.41737 7.07744 2.33334 6.76807 2.33334 6.41668V3.66668C2.33334 3.16251 2.51286 2.73091 2.87189 2.37189C3.23091 2.01286 3.66251 1.83334 4.16668 1.83334H18.8333C19.3375 1.83334 19.7691 2.01286 20.1281 2.37189C20.4872 2.73091 20.6667 3.16251 20.6667 3.66668V6.41668C20.6667 6.76807 20.5826 7.07744 20.4146 7.3448C20.2465 7.61216 20.025 7.82987 19.75 7.99793V18.3333C19.75 18.8375 19.5705 19.2691 19.2115 19.6281C18.8524 19.9872 18.4208 20.1667 17.9167 20.1667H5.08334ZM4.16668 6.41668H18.8333V3.66668H4.16668V6.41668ZM9.66668 12.8333H13.3333C13.5931 12.8333 13.8108 12.7455 13.9865 12.5698C14.1622 12.3941 14.25 12.1764 14.25 11.9167C14.25 11.657 14.1622 11.4392 13.9865 11.2636C13.8108 11.0879 13.5931 11 13.3333 11H9.66668C9.40695 11 9.18925 11.0879 9.01355 11.2636C8.83786 11.4392 8.75001 11.657 8.75001 11.9167C8.75001 12.1764 8.83786 12.3941 9.01355 12.5698C9.18925 12.7455 9.40695 12.8333 9.66668 12.8333Z" fill="#6B6062"/>
</g>
</svg>
