<svg width="22" height="22" viewBox="0 0 22 22" fill="none" xmlns="http://www.w3.org/2000/svg">
<mask id="mask0_238_85" style="mask-type:alpha" maskUnits="userSpaceOnUse" x="0" y="0" width="22" height="22">
<rect width="22" height="22" fill="#D9D9D9"/>
</mask>
<g mask="url(#mask0_238_85)">
<path d="M3.66667 16.5V6.50834L2.24583 3.43751C2.13889 3.20834 2.13125 2.97536 2.22292 2.73855C2.31458 2.50175 2.475 2.32987 2.70417 2.22293C2.93333 2.11598 3.16632 2.10452 3.40312 2.18855C3.63993 2.27258 3.8118 2.42918 3.91875 2.65834L5.68333 6.46251H16.3167L18.0812 2.65834C18.1882 2.42918 18.3601 2.26876 18.5969 2.17709C18.8337 2.08543 19.0667 2.1007 19.2958 2.22293C19.525 2.32987 19.6854 2.50175 19.7771 2.73855C19.8687 2.97536 19.8611 3.20834 19.7542 3.43751L18.3333 6.50834V16.5C18.3333 17.0042 18.1538 17.4358 17.7948 17.7948C17.4358 18.1538 17.0042 18.3333 16.5 18.3333H5.5C4.99583 18.3333 4.56424 18.1538 4.20521 17.7948C3.84618 17.4358 3.66667 17.0042 3.66667 16.5ZM9.16667 11.9167H12.8333C13.0931 11.9167 13.3108 11.8288 13.4865 11.6531C13.6622 11.4774 13.75 11.2597 13.75 11C13.75 10.7403 13.6622 10.5226 13.4865 10.3469C13.3108 10.1712 13.0931 10.0833 12.8333 10.0833H9.16667C8.90694 10.0833 8.68924 10.1712 8.51354 10.3469C8.33785 10.5226 8.25 10.7403 8.25 11C8.25 11.2597 8.33785 11.4774 8.51354 11.6531C8.68924 11.8288 8.90694 11.9167 9.16667 11.9167ZM5.5 16.5H16.5V8.29584H5.5V16.5Z" fill="#6B6062"/>
</g>
</svg>
