<svg width="22" height="22" viewBox="0 0 22 22" fill="none" xmlns="http://www.w3.org/2000/svg">
<mask id="mask0_238_107" style="mask-type:alpha" maskUnits="userSpaceOnUse" x="0" y="0" width="22" height="22">
<rect width="22" height="22" fill="#D9D9D9"/>
</mask>
<g mask="url(#mask0_238_107)">
<path d="M10.9999 11C9.9916 11 9.1284 10.641 8.41035 9.92294C7.69229 9.20488 7.33326 8.34169 7.33326 7.33335C7.33326 6.32502 7.69229 5.46183 8.41035 4.74377C9.1284 4.02571 9.9916 3.66669 10.9999 3.66669C12.0083 3.66669 12.8715 4.02571 13.5895 4.74377C14.3076 5.46183 14.6666 6.32502 14.6666 7.33335C14.6666 8.34169 14.3076 9.20488 13.5895 9.92294C12.8715 10.641 12.0083 11 10.9999 11ZM3.6666 16.5V15.7667C3.6666 15.2472 3.80028 14.7698 4.06764 14.3344C4.335 13.899 4.69021 13.5667 5.13326 13.3375C6.08048 12.8639 7.04298 12.5087 8.02076 12.2719C8.99854 12.0351 9.9916 11.9167 10.9999 11.9167C12.0083 11.9167 13.0013 12.0351 13.9791 12.2719C14.9569 12.5087 15.9194 12.8639 16.8666 13.3375C17.3097 13.5667 17.6649 13.899 17.9322 14.3344C18.1996 14.7698 18.3333 15.2472 18.3333 15.7667V16.5C18.3333 17.0042 18.1537 17.4358 17.7947 17.7948C17.4357 18.1538 17.0041 18.3334 16.4999 18.3334H5.49993C4.99576 18.3334 4.56416 18.1538 4.20514 17.7948C3.84611 17.4358 3.6666 17.0042 3.6666 16.5ZM5.49993 16.5H16.4999V15.7667C16.4999 15.5986 16.4579 15.4459 16.3739 15.3084C16.2899 15.1709 16.1791 15.0639 16.0416 14.9875C15.2166 14.575 14.384 14.2656 13.5437 14.0594C12.7034 13.8531 11.8555 13.75 10.9999 13.75C10.1444 13.75 9.29646 13.8531 8.45618 14.0594C7.6159 14.2656 6.78326 14.575 5.95826 14.9875C5.82076 15.0639 5.71 15.1709 5.62597 15.3084C5.54194 15.4459 5.49993 15.5986 5.49993 15.7667V16.5ZM10.9999 9.16669C11.5041 9.16669 11.9357 8.98717 12.2947 8.62815C12.6537 8.26912 12.8333 7.83752 12.8333 7.33335C12.8333 6.82919 12.6537 6.39759 12.2947 6.03856C11.9357 5.67953 11.5041 5.50002 10.9999 5.50002C10.4958 5.50002 10.0642 5.67953 9.70514 6.03856C9.34611 6.39759 9.1666 6.82919 9.1666 7.33335C9.1666 7.83752 9.34611 8.26912 9.70514 8.62815C10.0642 8.98717 10.4958 9.16669 10.9999 9.16669Z" fill="#6B6062"/>
</g>
</svg>
