<svg width="20" height="20" viewBox="0 0 20 20" fill="none" xmlns="http://www.w3.org/2000/svg">
<mask id="mask0_1_510" style="mask-type:alpha" maskUnits="userSpaceOnUse" x="0" y="0" width="20" height="20">
<rect width="20" height="20" fill="#A8A8A8"/>
</mask>
<g mask="url(#mask0_1_510)">
<path d="M7.5538 13.3333C6.00158 13.3333 4.6879 12.809 3.61274 11.7604C2.53758 10.7118 2 9.43056 2 7.91667C2 6.40278 2.53758 5.12153 3.61274 4.07292C4.6879 3.02431 6.00158 2.5 7.5538 2.5C9.10601 2.5 10.4197 3.02431 11.4949 4.07292C12.57 5.12153 13.1076 6.40278 13.1076 7.91667C13.1076 8.52778 13.0079 9.10417 12.8085 9.64583C12.6092 10.1875 12.3386 10.6667 11.9968 11.0833L16.7816 15.75C16.9383 15.9028 17.0166 16.0972 17.0166 16.3333C17.0166 16.5694 16.9383 16.7639 16.7816 16.9167C16.625 17.0694 16.4256 17.1458 16.1835 17.1458C15.9415 17.1458 15.7421 17.0694 15.5854 16.9167L10.8006 12.25C10.3734 12.5833 9.88212 12.8472 9.32674 13.0417C8.77136 13.2361 8.18038 13.3333 7.5538 13.3333ZM7.5538 11.6667C8.62184 11.6667 9.52967 11.3021 10.2773 10.5729C11.0249 9.84375 11.3987 8.95833 11.3987 7.91667C11.3987 6.875 11.0249 5.98958 10.2773 5.26042C9.52967 4.53125 8.62184 4.16667 7.5538 4.16667C6.48576 4.16667 5.57793 4.53125 4.8303 5.26042C4.08267 5.98958 3.70886 6.875 3.70886 7.91667C3.70886 8.95833 4.08267 9.84375 4.8303 10.5729C5.57793 11.3021 6.48576 11.6667 7.5538 11.6667Z" fill="#C5BEC0"/>
</g>
</svg>
